<?xml version="1.0" standalone="no"?>
<svg xmlns="http://www.w3.org/2000/svg" viewBox="0 0 63.528 29" width="63.528" height="29"><g fill="#ffffff" color="#ffffff" transform="translate(0, 0) scale(0.659091)"><svg width="44.0" height="44.0" x="0.0" y="0.0" viewBox="0 0 44 44"><path fill="currentColor" fill-rule="nonzero" d="M43.01 35.34c.15.1.24.26.23.43v5.59c0 .2-.12.38-.3.47-1.74.82-3.57 1.23-5.4 1.23-1.82 0-3.64-.4-5.37-1.21-.02 0-.03 0-.04-.01-3.19-1.51-6.72-1.51-9.92 0-3.47 1.63-7.3 1.64-10.78.01 0 0-.01-.01-.02-.01-3.19-1.51-6.72-1.51-9.92 0-.16.08-.35.06-.5-.03a.524.524 0 0 1-.24-.44v-5.59c0-.2.12-.38.3-.47 3.48-1.63 7.31-1.64 10.79-.01 0 0 .01.01.02.01 3.19 1.5 6.72 1.51 9.92 0 3.47-1.63 7.3-1.63 10.77-.01.02 0 .03 0 .04.01 3.19 1.51 6.72 1.51 9.92 0 .16-.08.35-.06.5.03zm0-33.53c.15.1.24.26.23.44v5.58c0 .2-.12.38-.3.47-1.74.82-3.57 1.23-5.4 1.23-1.82 0-3.64-.4-5.37-1.21-.02-.01-.03-.01-.04-.02-3.19-1.5-6.72-1.5-9.92 0-3.47 1.63-7.3 1.64-10.78.01 0 0-.01-.01-.02-.01-3.19-1.5-6.72-1.51-9.92 0-.16.08-.35.06-.5-.03a.524.524 0 0 1-.24-.44V2.24c0-.2.12-.38.3-.47C4.53.14 8.36.13 11.84 1.76c0 0 .01.01.02.01 3.19 1.5 6.72 1.5 9.92 0 3.47-1.63 7.3-1.63 10.77-.01.02.01.03.01.04.02 3.19 1.51 6.72 1.5 9.92 0 .16-.08.35-.07.5.03zm0 11.18c.15.1.24.26.23.44v5.59c0 .2-.12.38-.3.47-1.74.82-3.57 1.23-5.4 1.23-1.82 0-3.64-.4-5.37-1.21-.02-.01-.03-.01-.04-.02-3.19-1.51-6.72-1.51-9.92 0-3.47 1.63-7.3 1.64-10.78.01 0 0-.01-.01-.02-.01-3.19-1.5-6.72-1.5-9.92 0-.16.08-.35.06-.5-.03a.524.524 0 0 1-.24-.44v-5.59c0-.2.12-.38.3-.47 3.48-1.63 7.31-1.64 10.79-.01 0 0 .01.01.02.01 3.19 1.5 6.72 1.5 9.92 0 3.47-1.64 7.3-1.64 10.77-.02.02.01.03.01.04.02 3.19 1.51 6.72 1.5 9.92 0 .16-.08.35-.07.5.03zm0 11.18c.15.09.24.26.23.43v5.6c0 .2-.12.38-.3.47-1.74.82-3.57 1.23-5.4 1.23-1.82 0-3.64-.4-5.37-1.21-.02-.01-.03-.01-.04-.02-3.19-1.5-6.72-1.51-9.92 0-3.47 1.63-7.3 1.64-10.78.01 0 0-.01-.01-.02-.01-3.2-1.51-6.72-1.51-9.92 0-.16.08-.35.06-.5-.03a.524.524 0 0 1-.24-.44v-5.59c0-.2.12-.38.3-.47 3.48-1.63 7.31-1.64 10.79-.01 0 0 .01.01.02.01 3.19 1.5 6.72 1.51 9.92 0 3.47-1.63 7.3-1.63 10.77-.01.02 0 .03 0 .04.01 3.19 1.5 6.72 1.51 9.92 0 .16-.08.35-.07.5.03z"></path></svg></g><line x1="41" y1="1" x2="41" y2="28" stroke="#ffffff" stroke-linecap="round"></line><path fill="#ffffff" fill-rule="nonzero" d="M12.53 8.81L12.53 8.81Q12.53 9.26 10.42 9.86L10.42 9.86Q10.61 12.36 10.61 14.11L10.61 14.11Q10.61 17.14 9.84 17.14L9.84 17.14Q9.43 17.14 9.19 16.63Q8.95 16.13 8.81 14.88L8.81 14.88Q8.64 12.58 8.45 10.37L8.45 10.37Q7.37 10.66 6.48 10.88Q5.59 11.11 3.79 11.62L3.79 11.62Q1.68 17.14 1.30 17.14Q0.91 17.14 0.47 16.67Q0.02 16.20 0.02 15.67L0.02 15.67Q0.02 15.43 1.39 12.26L1.39 12.26L1.22 12.26Q0.74 12.26 0.37 11.95Q0 11.64 0 11.17Q0 10.70 2.38 9.94L2.38 9.94Q2.76 9.07 3 8.38L3 8.38Q3.55 7.01 4.54 4.63Q5.52 2.26 5.78 1.60Q6.05 0.94 6.71 0.47Q7.37 0 7.99 0L7.99 0Q8.74 0 9.32 2.38Q9.91 4.75 10.27 8.26L10.27 8.26Q10.94 8.18 11.45 8.18L11.45 8.18Q12.53 8.18 12.53 8.81ZM4.68 9.31L4.68 9.31Q6.38 8.86 8.28 8.54L8.28 8.54Q7.85 4.44 7.44 2.38L7.44 2.38Q6.36 4.85 4.68 9.31Z" transform="translate(51, 5.932)"></path></svg>